PathFileType	4	(X/Y/Z)	Patient4_TMGait_0pt6_01_left_02.trc.trc
DataRate	CameraRate	NumFrames	NumMarkers	Units	OrigDataRate	OrigDataStartFrame	OrigNumFrames
84.848484848485	84.848484848485	4	33	mm	84.848484848485	53	       141
Frame#	Time	Sacral			L.Shoulder			Chest			R.Shoulder			Neck			R.ASIS			L.ASIS			R.Thigh.Superior			R.Thigh.Lateral			R.Thigh.Inferior			R.Patella			L.Thigh.Superior			L.Thigh.Lateral			L.Thigh.Inferior			L.Patella			L.Shank.Superior			L.Shank.Lateral			L.Shank.Inferior			R.Shank.Superior			R.Shank.Lateral			R.Shank.Inferior			R.Heel			R.Midfoot.Superior			R.Midfoot.Lateral			R.Toe			L.Heel			L.Midfoot.Lateral			L.Midfoot.Superior			L.Toe			L.Elbow			L.Wrist			R.Elbow			R.Wrist			
		X1	Y1	Z1	X2	Y2	Z2	X3	Y3	Z3	X4	Y4	Z4	X5	Y5	Z5	X6	Y6	Z6	X7	Y7	Z7	X8	Y8	Z8	X9	Y9	Z9	X10	Y10	Z10	X11	Y11	Z11	X12	Y12	Z12	X13	Y13	Z13	X14	Y14	Z14	X15	Y15	Z15	X16	Y16	Z16	X17	Y17	Z17	X18	Y18	Z18	X19	Y19	Z19	X20	Y20	Z20	X21	Y21	Z21	X22	Y22	Z22	X23	Y23	Z23	X24	Y24	Z24	X25	Y25	Z25	X26	Y26	Z26	X27	Y27	Z27	X28	Y28	Z28	X29	Y29	Z29	X30	Y30	Z30	X31	Y31	Z31	X32	Y32	Z32	X33	Y33	Z33	

53	3.002857142857	603.156060841641	1009.713936141602	421.215496936317	771.893823688569	1436.173312815821	234.364874714608	879.189367939924	1372.339115356709	394.307785160442	797.698341682224	1444.259700375415	568.864401351712	756.182174124620	1497.489089732557	389.295722528453	827.646855825006	943.942644989409	537.304375901842	821.172119523278	967.415283132245	264.122854523474	902.557920854899	764.457346151331	510.799670186698	852.686082476910	645.201972374470	580.051742875371	941.969017382526	601.011520643858	503.054362535592	952.285246235569	485.580373567670	523.831795801768	865.498962129088	753.238194583650	294.264593396888	774.961825434134	638.524343767337	238.369630264334	857.393205249555	560.731722612117	302.789882809331	856.113224455872	492.751708019423	313.914693692439	834.105721259149	421.312645991306	307.055543896580	749.611038753601	301.747643953329	261.507366798732	806.976007457755	195.340734817572	334.855367340273	869.460413700001	416.904591165798	527.340777582863	744.533897370711	387.004815438125	586.157524466922	720.107077562101	282.289918567854	533.414527629883	512.681836629413	236.212550270624	502.966549185869	677.716972745626	168.769694291593	542.147910570473	567.770019179205	171.021679689206	574.403790524015	738.082572473683	53.774791757837	566.592855993724	685.990819689869	37.974205763927	386.072253680143	755.553017605599	34.337626011432	301.186399561860	839.677689340432	96.272884907601	323.213953972661	966.548959837722	46.040359991302	289.181633597764	790.613537918699	1085.160040451238	106.662557681996	993.875662272163	927.552751360722	145.678904412217	793.855203718074	1090.075347446023	680.378186326879	917.094134113027	861.294392175467	660.002866762798	
54	3.014642857143	602.064128766783	1010.234201047374	419.663720555691	773.098665127014	1436.877889757472	234.064077728673	879.212788186422	1372.531781783642	394.590905304530	796.714620943703	1444.359912821253	568.649116703515	756.616204766447	1497.953884712893	388.939703931651	825.896520570610	944.915436945412	537.087604608855	820.845048229066	967.622896063947	263.627837957561	903.739786142698	768.372744920968	509.628505240000	857.233993741089	648.453420163670	579.610374157610	946.858952911493	605.975841130862	502.030052630850	960.095179490694	490.801292928822	523.095032695712	863.369376608485	752.567554862679	294.425137987704	772.120311674139	638.467353861882	238.078623120814	853.460123463198	560.049241829948	302.956349711162	851.494099853526	492.144311182385	314.218245007448	829.202267099515	420.920321679872	307.239463928535	744.247539215311	301.809238641803	261.383325038003	800.641894279472	195.112174449315	335.006508556628	878.805243533330	420.389966053075	527.036794366390	754.691963504852	387.615905344142	585.958876102182	732.769143340274	282.170984241377	533.543781765709	526.545471166380	230.711106884391	503.228015157380	693.187953700440	167.752042724785	542.633478076512	583.308420383392	167.404819754816	574.978940407771	756.428855737129	54.657217124936	567.750648417510	678.814534018397	37.984633230597	386.039986881880	748.427387788155	34.351566912871	301.173981809227	832.606437507049	96.238824750543	323.281623785707	959.462652239192	45.844695831595	289.209619959131	800.003776791095	1088.176150586820	103.670063840866	1012.588852269265	946.432150107325	149.697486922656	784.789172046466	1090.658149268691	680.721366955456	894.817368128136	854.312038476939	667.414638610814	
55	3.026428571429	600.983876765907	1010.676532443099	418.202169921170	774.271046151884	1437.579253813952	233.898109821346	879.208308147539	1372.662572045060	394.971397987432	795.726989619636	1444.423816303456	568.521834686501	757.039463447217	1498.402855773765	388.680700559627	824.237366623361	945.835299614049	536.990179732102	820.298403840904	967.705423886824	263.231550982580	904.706166555262	772.096600291406	508.695816849816	861.306862771044	651.627818105998	579.267064875021	951.222570164951	610.748536707827	501.157492425436	967.234411156953	496.031591346138	522.499428691662	861.139823851266	751.868996345503	294.553463163306	769.190478130740	638.382502844951	237.779937175792	849.479015018900	559.354111262611	303.045218330307	846.831808717056	491.525751766042	314.442944303656	824.255629421579	420.508258940841	307.365461590288	738.818933765090	301.849578949119	261.265298590999	794.287535451265	194.873388821361	335.118599963667	887.833888983735	423.732060856815	526.855438070781	764.804272292772	387.497984182469	585.927612673858	745.915426201794	281.259798411917	533.826376569740	541.260852961167	223.414079054032	503.705270628000	709.718664054191	165.845788286479	543.287551476632	599.999188247671	162.378527308487	575.784421997213	776.401755913969	55.044002168001	569.149429256161	671.636426521824	37.993090048095	386.016451580862	741.305996924770	34.362540257921	301.164521042722	825.538186273996	96.201685717454	323.344852846629	952.385902123897	45.634629608674	289.238976750195	809.614851318197	1091.487562049257	101.077629181206	1030.299237282304	966.628102013667	154.417184545515	775.885855365583	1091.501959193960	681.240479716468	872.889074697703	848.922219400312	674.468767329104	
56	3.038214285714	599.904272168568	1011.042850198663	416.836208160206	775.399602451173	1438.252460661428	233.864204934740	879.169332829948	1372.730620005521	395.448919326194	794.732770689678	1444.454984215023	568.484102986473	757.441346329272	1498.823874609669	388.508734807914	822.668984706237	946.671572690717	536.963643478237	819.544304510321	967.673768890005	262.928832604699	905.458218184511	775.555733026921	507.993549968451	864.862374779980	654.642886586076	579.026970014024	955.022917665333	615.222505178933	500.457726545334	973.633173740430	501.173334655450	522.072005566192	858.833341348568	751.145095396142	294.653397534988	766.180757817484	638.278321183123	237.468176190420	845.445427920623	558.649769981989	303.061206107635	842.115086196120	490.898057398843	314.597488012335	819.258909818755	420.079188301193	307.439490242585	733.329175662963	301.868796503408	261.152197931693	787.912903068436	194.624915159800	335.197214989225	896.478120573454	426.875448754865	526.808914116840	774.853333634689	386.641183961903	586.086879612230	759.497188162508	279.614203399026	534.268540991890	556.857676201881	214.508443332065	504.431259811931	727.232753195033	163.158401338390	544.099407586466	617.812463339941	156.094668591084	576.822451978110	797.831458811061	55.033412220863	570.711999300667	664.462252873660	37.999905605476	386.000952484103	734.190786793629	34.370311500124	301.158655690443	818.475628233342	96.159993026754	323.404677171148	945.320894810272	45.410994331479	289.268338666991	819.506210389743	1095.067206589551	98.912453054184	1046.897777376198	987.884378827307	159.721639927244	767.148605295933	1092.590516594486	681.940953368236	851.575510789552	845.056876588613	681.085276188563	
